# xmcd CD database file
#
# Track frame offsets:
#	150
#	26485
#	69782
#	85297
#	107587
#	131565
#	144475
#	154645
#	196502
#	227142
#
# Disc length: 3404 seconds
#
# Revision: 8
# Processed by: cddbd v1.5.2PL0 Copyright (c) Steve Scherf et al.
# Submitted via: CDex 1.78
#
DISCID=740d4a0a
DTITLE=Robert Haig Coxon - The Silent Path
DYEAR=1995
DGENRE=New Age
TTITLE0=Towards the Light
TTITLE1=The Silent Path  (Sections 1-4)
TTITLE2=The Silent Path  (Section 5)
TTITLE3=Angelic Love  (Section 1)
TTITLE4=Angelic Love  (Sections 2-4)
TTITLE5=Finding Peace
TTITLE6=Gabriel  (Section 1)
TTITLE7=Gabriel  (Sections 2-4)
TTITLE8=Infinity
TTITLE9=The Light
EXTD=YEAR: 1995
EXTT0=
EXTT1=
EXTT2=
EXTT3=
EXTT4=
EXTT5=
EXTT6=
EXTT7=
EXTT8=
EXTT9=
PLAYORDER=
